# xmcd CD database file
#
# Track frame offsets:
#	150
#	15267
#	31902
#	52013
#	67524
#	76752
#	95846
#	115377
#	132689
#	151241
#	168150
#	181050
#	196533
#	216683
#	233061
#	249100
#	268847
#
# Disc length: 3821 seconds
#
# Revision: 0
# Processed by: cddbd v1.5.1PL2 Copyright (c) Steve Scherf et al.
# Submitted via: CDex 1.51
#
DISCID=d70eeb11
DTITLE=Various Artist - Lo Mejor de la Musica de Los Dioses 2
DYEAR=2005
DGENRE=New Age
TTITLE0=Children - The Hymn
TTITLE1=Thank You - Millenium
TTITLE2=Orinoco Flow - Black Jade
TTITLE3=Zanzibar - Leki Aje
TTITLE4=Gabriel's Oboe - Forest Rain
TTITLE5=Mother - Omega
TTITLE6=Snow In Sahara - Alea
TTITLE7=Breeze - The Promise
TTITLE8=I'll Remenber - Labyrinth
TTITLE9=Rain Dance - Tipi
TTITLE10=Guide Me Home - Glory
TTITLE11=Voices - Lost Land
TTITLE12=Silence - Diamond
TTITLE13=In Domine - The Darkside
TTITLE14=Indian Moods - Akhawi
TTITLE15=Voices Of Freedom - Mystique
TTITLE16=Island In The Sun - Wild Wind
EXTD=YEAR: 2005
EXTT0=
EXTT1=
EXTT2=
EXTT3=
EXTT4=
EXTT5=
EXTT6=
EXTT7=
EXTT8=
EXTT9=
EXTT10=
EXTT11=
EXTT12=
EXTT13=
EXTT14=
EXTT15=
EXTT16=
PLAYORDER=
